<svg xmlns="http://www.w3.org/2000/svg" viewBox="0 0 1280 1280">
  <title>3D Logo</title>
<g transform="translate(0.000000,1280.000000) scale(0.100000,-0.100000)"
fill="#2A4761" stroke="none">
<path d="M1260 10180 l0 -580 1073 0 c1127 -1 1812 -11 1830 -29 16 -16 -145
-223 -818 -1051 -58 -71 -287 -355 -403 -499 -29 -36 -61 -75 -71 -87 -100
-117 -191 -239 -211 -284 l-25 -55 0 -447 c0 -323 3 -450 11 -458 9 -9 41 -2
130 28 286 98 410 117 759 117 282 0 316 -4 532 -56 199 -47 380 -130 523
-239 169 -129 360 -345 429 -485 118 -240 177 -555 152 -819 -33 -353 -165
-641 -401 -876 -191 -192 -412 -316 -683 -384 -172 -44 -247 -51 -517 -51
-289 1 -368 13 -568 84 -507 181 -847 524 -1013 1023 -53 158 -63 178 -93 178
-13 0 -111 -20 -218 -44 -106 -24 -276 -63 -378 -86 -235 -53 -487 -119 -522
-137 -21 -10 -28 -21 -28 -44 0 -67 79 -319 161 -517 120 -290 319 -583 559
-823 476 -477 1105 -747 1885 -809 603 -48 1204 64 1718 321 791 396 1280
1133 1358 2048 29 344 -7 734 -98 1056 -175 618 -597 1119 -1188 1410 -196 97
-632 233 -833 260 -29 4 -52 11 -50 16 4 12 232 291 885 1081 l543 657 0 581
0 580 -2215 0 -2215 0 0 -580z"/>
</g>

<g transform="translate(0.000000,1280.000000) scale(0.100000,-0.100000)"
fill="#414141" stroke="none">
<path d="M6174 10743 l-31 -4 -7 -452 c-3 -249 -9 -999 -12 -1667 l-6 -1215
54 -60 c152 -170 271 -346 390 -580 196 -385 262 -622 303 -1080 27 -307 14
-707 -30 -913 -98 -468 -251 -831 -487 -1162 -155 -218 -364 -449 -518 -573
-115 -92 -160 -134 -153 -140 10 -10 1204 -8 1883 3 698 11 1090 25 1195 41
937 147 1783 621 2379 1335 559 670 882 1510 914 2381 20 529 -46 1011 -203
1486 -317 963 -999 1746 -1926 2213 -249 125 -508 216 -849 298 -80 19 -194
47 -255 62 l-110 27 -1250 2 c-687 2 -1264 1 -1281 -2z m2361 -1168 c466 -56
942 -266 1332 -585 105 -86 292 -275 376 -380 359 -448 549 -944 598 -1565 25
-315 -11 -744 -86 -1030 -97 -372 -361 -827 -653 -1129 -242 -250 -455 -408
-737 -546 -301 -148 -568 -226 -890 -262 -130 -14 -1109 -18 -1123 -4 -4 4 -9
1239 -10 2745 -4 2563 -3 2738 13 2751 28 24 151 29 610 25 320 -3 475 -8 570
-20z"/>
</g>
</svg>
